<!--?xml version="1.0" encoding="UTF-8"?-->
<svg width="400px" height="400px" viewBox="0 0 400 400" version="1.1" xmlns="http://www.w3.org/2000/svg" xmlns:xlink="http://www.w3.org/1999/xlink" style="">
    <!-- Generator: Sketch 52.6 (67491) - http://www.bohemiancoding.com/sketch -->
    <title>RIGHT</title>
    <desc>Created with Sketch.</desc>
    <g id="Page-1" stroke="none" stroke-width="1" fill="none" fill-rule="evenodd">
        <g id="RIGHT">
            <path id="Rectangle-2" fill="#152239" width="400" height="400" d="M0 0 L400 0 L400 400 L0 400 Z" class="ERfcZWnS_0"></path>
            <path id="Oval" stroke="#FFFFFF" stroke-width="10" fill="#6D97B9" d="M100,200A100,100 0,1,1 300,200A100,100 0,1,1 100,200" class="ERfcZWnS_1"></path>
            <path id="Oval" stroke="#213E72" stroke-width="10" fill="#6E98BA" d="M117,200A83,83 0,1,1 283,200A83,83 0,1,1 117,200" class="ERfcZWnS_2"></path>
            <path id="Oval" stroke="#213E72" stroke-width="10" fill="#FFFFFF" d="M140,200A60,60 0,1,1 260,200A60,60 0,1,1 140,200" class="ERfcZWnS_3"></path>
            <path d="M0,200 C2.98507463,200 17.9104478,200 44.7761194,200 C71.641791,200 100,200 129.850746,200 L170.149254,200 L214.925373,200 L255.223881,200 L300,200" id="Path" stroke="#FFFFFF" stroke-width="10" fill="#FFFFFF" class="ERfcZWnS_4"></path>
            <text id="Y" font-family="Phosphate-Inline, Phosphate" font-size="75" font-weight="normal" letter-spacing="1" fill="#152239">
                <tspan x="177.9875" y="224">Y</tspan>
            </text>
        </g>
    </g>
<style data-made-with="vivus-instant">.ERfcZWnS_0{stroke-dasharray:1600 1602;stroke-dashoffset:1601;animation:ERfcZWnS_draw_0 5600ms ease 0ms infinite,ERfcZWnS_fade 5600ms linear 0ms infinite;}.ERfcZWnS_1{stroke-dasharray:629 631;stroke-dashoffset:630;animation:ERfcZWnS_draw_1 5600ms ease 0ms infinite,ERfcZWnS_fade 5600ms linear 0ms infinite;}.ERfcZWnS_2{stroke-dasharray:522 524;stroke-dashoffset:523;animation:ERfcZWnS_draw_2 5600ms ease 0ms infinite,ERfcZWnS_fade 5600ms linear 0ms infinite;}.ERfcZWnS_3{stroke-dasharray:378 380;stroke-dashoffset:379;animation:ERfcZWnS_draw_3 5600ms ease 0ms infinite,ERfcZWnS_fade 5600ms linear 0ms infinite;}.ERfcZWnS_4{stroke-dasharray:300 302;stroke-dashoffset:301;animation:ERfcZWnS_draw_4 5600ms ease 0ms infinite,ERfcZWnS_fade 5600ms linear 0ms infinite;}@keyframes ERfcZWnS_draw{100%{stroke-dashoffset:0;}}@keyframes ERfcZWnS_fade{0%{stroke-opacity:1;}92.85714285714286%{stroke-opacity:1;}100%{stroke-opacity:0;}}@keyframes ERfcZWnS_draw_0{7.142857142857142%{stroke-dashoffset: 1601}42.857142857142854%{ stroke-dashoffset: 0;}100%{ stroke-dashoffset: 0;}}@keyframes ERfcZWnS_draw_1{11.607142857142858%{stroke-dashoffset: 630}47.32142857142857%{ stroke-dashoffset: 0;}100%{ stroke-dashoffset: 0;}}@keyframes ERfcZWnS_draw_2{16.071428571428573%{stroke-dashoffset: 523}51.78571428571429%{ stroke-dashoffset: 0;}100%{ stroke-dashoffset: 0;}}@keyframes ERfcZWnS_draw_3{20.535714285714285%{stroke-dashoffset: 379}56.25%{ stroke-dashoffset: 0;}100%{ stroke-dashoffset: 0;}}@keyframes ERfcZWnS_draw_4{25%{stroke-dashoffset: 301}60.71428571428571%{ stroke-dashoffset: 0;}100%{ stroke-dashoffset: 0;}}
</style></svg>
