<?xml version="1.0" encoding="UTF-8"?>
<svg width="303px" height="147px" viewBox="0 0 303 147" version="1.1" xmlns="http://www.w3.org/2000/svg" xmlns:xlink="http://www.w3.org/1999/xlink">
    <!-- Generator: Sketch 52.6 (67491) - http://www.bohemiancoding.com/sketch -->
    <title>Artboard</title>
    <desc>Created with Sketch.</desc>
    <g id="Artboard" stroke="none" stroke-width="1" fill="none" fill-rule="evenodd">
        <g id="TECH" transform="translate(98.000000, -15.000000)">
            <g id="Group-5" transform="translate(45.000000, 41.000000)">
                <g id="Skill---5" transform="translate(151.383784, 31.083729)"></g>
                <g id="Skill---4" transform="translate(96.621622, 0.154762)" fill="#FFFFFF" font-family="Ubuntu-Medium, Ubuntu Medium" font-size="8" font-weight="normal" line-spacing="10">
                    <text id="Express">
                        <tspan x="0.783783784" y="9">Express</tspan>
                    </text>
                </g>
                <g id="Skill---3" transform="translate(0.000000, 55.012810)" fill="#FFFFFF" font-family="Ubuntu-Medium, Ubuntu Medium" font-size="8" font-weight="normal" line-spacing="10">
                    <text id="Postgresql">
                        <tspan x="0.691891892" y="9">Postgresql</tspan>
                    </text>
                </g>
                <g id="Skill---3" transform="translate(0.000000, 81.470846)" fill="#FFFFFF" font-family="Ubuntu-Medium, Ubuntu Medium" font-size="8" font-weight="normal" line-spacing="10">
                    <text id="Ruby-on-Rails">
                        <tspan x="0.691891892" y="9">Ruby on Rails</tspan>
                    </text>
                </g>
                <g id="Skill---2" transform="translate(0.000000, 27.298524)" fill="#FFFFFF" font-family="Ubuntu-Medium, Ubuntu Medium" font-size="8" font-weight="normal" line-spacing="10">
                    <text id="Redux">
                        <tspan x="0.691891892" y="9">Redux</tspan>
                    </text>
                </g>
                <g id="Skill---1" transform="translate(70.000000, 2.584238)"></g>
                <g id="Skill---1" transform="translate(96.621622, 54.327084)" fill="#FFFFFF" font-family="Ubuntu-Medium, Ubuntu Medium" font-size="8" font-weight="normal" line-spacing="10">
                    <text id="Photoshop">
                        <tspan x="0.783783784" y="9">Photoshop</tspan>
                    </text>
                </g>
                <g id="Skill---1" transform="translate(97.000000, 81.470846)" fill="#FFFFFF" font-family="Ubuntu-Medium, Ubuntu Medium" font-size="8" font-weight="normal" line-spacing="10">
                    <text id="Sketch">
                        <tspan x="0.783783784" y="9">Sketch</tspan>
                    </text>
                </g>
                <text id="MongoDB" font-family="Ubuntu-Medium, Ubuntu Medium" font-size="8" font-weight="normal" line-spacing="10" fill="#FFFFFF">
                    <tspan x="97.4054054" y="36.2985239">MongoDB</tspan>
                </text>
            </g>
            <g id="Redux" transform="translate(23.969236, 68.002039)" fill="#FFFFFF" fill-rule="nonzero">
                <path d="M8.96563853,9.80639462 C9.42587996,9.75542921 9.77504375,9.33103009 9.7591616,8.82168863 C9.74332816,8.31239927 9.34651791,7.90493652 8.87039432,7.90493652 L8.83867873,7.90493652 C8.34662427,7.92192499 7.96574489,8.36331257 7.98162704,8.8895904 C7.9975092,9.14426113 8.09270469,9.36495493 8.23554663,9.51774694 C7.69594315,10.655245 6.87065577,11.4871068 5.6327247,12.1831651 C4.79155516,12.6585297 3.91867004,12.8283102 3.04578492,12.7094951 C2.33157518,12.6076164 1.77608954,12.2681075 1.42687703,11.7078006 C0.919037853,10.8759387 0.87144011,9.976123 1.29996595,9.07635936 C1.601532,8.43121434 2.07760687,7.95584982 2.37917292,7.71816755 C2.31569302,7.49747376 2.22044882,7.12398795 2.17285108,6.85238086 C-0.128453526,8.63497178 0.109632627,11.0457192 0.807960213,12.1831651 C1.33168154,13.0320676 2.39505508,13.5583454 3.56950625,13.5583454 C3.88690573,13.5583454 4.20430522,13.5243685 4.52175342,13.4395303 C6.55325628,13.0150791 8.0927534,11.7247891 8.96563853,9.80639462 Z M11.7589489,7.70123119 C10.5527334,6.19024737 8.77519884,5.35838551 6.74369597,5.35838551 L6.48977639,5.35838551 C6.34693444,5.05280147 6.04536839,4.84904404 5.71208675,4.84904404 L5.68032244,4.84904404 C5.18836542,4.86603251 4.80748604,5.30742009 4.82331947,5.83375003 C4.83920163,6.34303939 5.23596316,6.75050214 5.71208675,6.75050214 L5.74380234,6.75050214 C6.09296613,6.73351367 6.39453218,6.49583141 6.52149198,6.1732589 L6.80717587,6.1732589 C8.01339135,6.1732589 9.15607822,6.54674471 10.1877362,7.27677997 C10.9812592,7.83703474 11.552627,8.56707 11.8700265,9.44984517 C12.1398283,10.162892 12.1239461,10.8589503 11.8382622,11.453182 C11.3939029,12.3529456 10.6479776,12.8452986 9.66396611,12.8452986 C9.02911842,12.8452986 8.42603504,12.6415412 8.10858684,12.4887492 C7.9340293,12.6585297 7.6165811,12.9301368 7.3943771,13.0999694 C8.07687125,13.4394782 8.77519884,13.6262472 9.44176211,13.6262472 C10.9653771,13.6262472 12.0922305,12.7264314 12.5207564,11.8266678 C12.9809978,10.8419618 12.9492335,9.14426113 11.7589489,7.70123119 Z M3.69646604,10.0949381 C3.7123482,10.6042795 4.10910973,11.0116902 4.58523332,11.0116902 L4.61699763,11.0116902 C5.10900337,10.9947538 5.48988275,10.5533141 5.4740006,10.0270363 C5.45816716,9.51769483 5.06135691,9.11028419 4.58523332,9.11028419 L4.55351773,9.11028419 C4.52175342,9.11028419 4.47410696,9.11028419 4.44244009,9.12722055 C3.79171025,7.97278618 3.52190851,6.7165252 3.61715271,5.35833339 C3.68058389,4.33970257 3.99803209,3.45687529 4.55351773,2.72684003 C5.01375916,2.09868348 5.90252644,1.79309944 6.50565854,1.77616309 C8.18794889,1.74218614 8.90210991,3.98315312 8.94975637,4.88296887 C9.15607822,4.93388217 9.50524201,5.05274936 9.74332816,5.1376396 C9.55283975,2.38738327 7.96574489,0.961289692 6.44217864,0.961289692 C5.01375916,0.961289692 3.69646604,2.06481076 3.17269599,3.69460966 C2.44265282,5.86767486 2.91877641,7.95584982 3.80754368,9.60263719 C3.72823035,9.72145226 3.68058389,9.90822123 3.69646604,10.0949902 L3.69646604,10.0949381 Z" id="Shape"></path>
            </g>
            <g id="React" transform="translate(23.000000, 40.000000)" fill="#FFFFFF">
                <ellipse id="Oval" cx="7.5" cy="6.5" rx="1.73076923" ry="1.77272727"></ellipse>
                <path d="M12.6876997,4.31395349 C12.4241214,4.22093023 12.1485623,4.12790698 11.8610224,4.04651163 C11.9329073,3.76744186 11.9928115,3.48837209 12.0407348,3.22093023 C12.2923323,1.68604651 12.0167732,0.604651163 11.25,0.186046512 C11.0223642,0.0581395349 10.7707668,0 10.4832268,0 C9.64456869,0 8.57827476,0.604651163 7.5,1.61627907 C6.42172524,0.604651163 5.35543131,0 4.51677316,0 C4.22923323,0 3.97763578,0.0581395349 3.75,0.186046512 C2.98322684,0.61627907 2.70766773,1.69767442 2.95926518,3.22093023 C3.0071885,3.48837209 3.06709265,3.76744186 3.13897764,4.04651163 C2.8514377,4.12790698 2.57587859,4.20930233 2.31230032,4.31395349 C0.814696486,4.87209302 0,5.63953488 0,6.5 C0,7.36046512 0.826677316,8.12790698 2.31230032,8.68604651 C2.57587859,8.77906977 2.8514377,8.87209302 3.13897764,8.95348837 C3.06709265,9.23255814 3.0071885,9.51162791 2.95926518,9.77906977 C2.70766773,11.3139535 2.98322684,12.3953488 3.75,12.8139535 C3.97763578,12.9418605 4.22923323,13 4.51677316,13 C5.36741214,13 6.43370607,12.3953488 7.5,11.3837209 C8.57827476,12.3953488 9.64456869,13 10.4832268,13 C10.7707668,13 11.0223642,12.9418605 11.25,12.8139535 C12.0167732,12.3837209 12.2923323,11.3023256 12.0407348,9.77906977 C11.9928115,9.51162791 11.9329073,9.23255814 11.8610224,8.95348837 C12.1485623,8.87209302 12.4241214,8.79069767 12.6876997,8.68604651 C14.1853035,8.12790698 15,7.36046512 15,6.5 C15,5.63953488 14.1853035,4.87209302 12.6876997,4.31395349 Z M10.9145367,0.76744186 C11.4057508,1.04651163 11.5734824,1.90697674 11.3698083,3.12790698 C11.3338658,3.37209302 11.2739617,3.62790698 11.2020767,3.89534884 C10.5790735,3.75581395 9.9201278,3.6627907 9.22523962,3.60465116 C8.81789137,3.04651163 8.3985623,2.54651163 7.97923323,2.09302326 C8.8658147,1.24418605 9.764377,0.662790698 10.4952077,0.662790698 C10.6509585,0.662790698 10.7947284,0.697674419 10.9145367,0.76744186 Z M9.57268371,7.6627907 C9.35702875,8.03488372 9.10543131,8.40697674 8.84185304,8.77906977 C8.3985623,8.81395349 7.95527157,8.8255814 7.5,8.8255814 C7.0327476,8.8255814 6.58945687,8.81395349 6.15814696,8.77906977 C5.89456869,8.40697674 5.65495208,8.03488372 5.43929712,7.6627907 C5.21166134,7.27906977 4.99600639,6.88372093 4.8043131,6.5 C4.99600639,6.11627907 5.21166134,5.72093023 5.43929712,5.3372093 C5.65495208,4.96511628 5.90654952,4.59302326 6.1701278,4.22093023 C6.61341853,4.18604651 7.05670927,4.1744186 7.51198083,4.1744186 C7.97923323,4.1744186 8.42252396,4.18604651 8.85383387,4.22093023 C9.11741214,4.59302326 9.35702875,4.96511628 9.57268371,5.3372093 C9.80031949,5.72093023 10.0159744,6.11627907 10.2076677,6.5 C10.0039936,6.88372093 9.80031949,7.26744186 9.57268371,7.6627907 Z M10.5670927,7.27906977 C10.7468051,7.68604651 10.8905751,8.08139535 11.0223642,8.47674419 C10.615016,8.56976744 10.1837061,8.63953488 9.7284345,8.69767442 C9.87220447,8.47674419 10.0279553,8.24418605 10.1597444,8 C10.3035144,7.75581395 10.4353035,7.51162791 10.5670927,7.27906977 Z M7.5,10.4302326 C7.21246006,10.127907 6.93690096,9.80232558 6.67332268,9.46511628 C6.94888179,9.47674419 7.22444089,9.48837209 7.5,9.48837209 C7.77555911,9.48837209 8.05111821,9.47674419 8.32667732,9.46511628 C8.06309904,9.80232558 7.78753994,10.127907 7.5,10.4302326 Z M5.2715655,8.68604651 C4.81629393,8.62790698 4.38498403,8.55813953 3.97763578,8.46511628 C4.10942492,8.08139535 4.25319489,7.6744186 4.43290735,7.26744186 C4.56469649,7.5 4.69648562,7.74418605 4.84025559,7.97674419 C4.98402556,8.23255814 5.12779553,8.45348837 5.2715655,8.68604651 Z M4.43290735,5.72093023 C4.25319489,5.31395349 4.10942492,4.91860465 3.97763578,4.52325581 C4.38498403,4.43023256 4.81629393,4.36046512 5.2715655,4.30232558 C5.12779553,4.52325581 4.97204473,4.75581395 4.84025559,5 C4.69648562,5.24418605 4.56469649,5.48837209 4.43290735,5.72093023 Z M7.5,2.56976744 C7.78753994,2.87209302 8.06309904,3.19767442 8.32667732,3.53488372 C8.05111821,3.52325581 7.77555911,3.51162791 7.5,3.51162791 C7.22444089,3.51162791 6.94888179,3.52325581 6.67332268,3.53488372 C6.93690096,3.19767442 7.21246006,2.87209302 7.5,2.56976744 Z M10.1597444,5.01162791 L9.7284345,4.31395349 C10.1837061,4.37209302 10.615016,4.44186047 11.0223642,4.53488372 C10.8905751,4.91860465 10.7468051,5.3255814 10.5670927,5.73255814 C10.4353035,5.48837209 10.3035144,5.24418605 10.1597444,5.01162791 Z M3.63019169,3.12790698 C3.42651757,1.90697674 3.5942492,1.04651163 4.08546326,0.76744186 C4.20527157,0.697674419 4.34904153,0.662790698 4.50479233,0.662790698 C5.22364217,0.662790698 6.12220447,1.23255814 7.02076677,2.09302326 C6.6014377,2.53488372 6.18210863,3.04651163 5.77476038,3.60465116 C5.0798722,3.6627907 4.42092652,3.76744186 3.79792332,3.89534884 C3.72603834,3.62790698 3.67811502,3.37209302 3.63019169,3.12790698 Z M0.670926518,6.5 C0.670926518,5.95348837 1.35383387,5.37209302 2.55191693,4.94186047 C2.79153355,4.84883721 3.05511182,4.76744186 3.3186901,4.69767442 C3.51038339,5.27906977 3.75,5.89534884 4.03753994,6.51162791 C3.75,7.12790698 3.49840256,7.73255814 3.3186901,8.31395349 C1.66533546,7.84883721 0.670926518,7.15116279 0.670926518,6.5 Z M4.08546326,12.2325581 C3.5942492,11.9534884 3.42651757,11.0930233 3.63019169,9.87209302 C3.66613419,9.62790698 3.72603834,9.37209302 3.79792332,9.10465116 C4.42092652,9.24418605 5.0798722,9.3372093 5.77476038,9.39534884 C6.18210863,9.95348837 6.6014377,10.4534884 7.02076677,10.9069767 C6.1341853,11.755814 5.235623,12.3372093 4.50479233,12.3372093 C4.34904153,12.3372093 4.20527157,12.3023256 4.08546326,12.2325581 Z M11.3698083,9.87209302 C11.5734824,11.0930233 11.4057508,11.9534884 10.9145367,12.2325581 C10.7947284,12.3023256 10.6509585,12.3372093 10.4952077,12.3372093 C9.77635783,12.3372093 8.87779553,11.7674419 7.97923323,10.9069767 C8.3985623,10.4651163 8.81789137,9.95348837 9.22523962,9.39534884 C9.9201278,9.3372093 10.5790735,9.23255814 11.2020767,9.10465116 C11.2739617,9.37209302 11.321885,9.62790698 11.3698083,9.87209302 Z M12.4480831,8.05813953 C12.2084665,8.15116279 11.9448882,8.23255814 11.6813099,8.30232558 C11.4896166,7.72093023 11.25,7.10465116 10.9624601,6.48837209 C11.25,5.87209302 11.5015974,5.26744186 11.6813099,4.68604651 C13.3346645,5.15116279 14.3290735,5.84883721 14.3290735,6.5 C14.3290735,7.04651163 13.6341853,7.62790698 12.4480831,8.05813953 Z" id="Shape" fill-rule="nonzero"></path>
                <text font-family="Ubuntu-Medium, Ubuntu Medium" font-size="8" font-weight="normal">
                    <tspan x="23" y="9">React</tspan>
                </text>
            </g>
            <g id="Rails" transform="translate(24.938472, 121.006044)" fill="#FFFFFF">
                <g id="Group" transform="translate(0.000000, 12.000000)" fill-rule="nonzero">
                    <path d="M0.107855634,0.0631968586 L0.107855634,2.61340393 L0.748438554,2.61340393 L0.748438554,1.94924296 L1.33135029,2.54117895 L2.31421693,2.54117895 L1.53466167,1.74955514 C1.53466167,1.74955514 2.09558116,1.74028943 2.13792795,0.916829615 C2.13792795,0.161199506 1.57642356,0.0631968586 0.928002977,0.0631968586 L0.107855634,0.0631968586 Z M0.778970355,0.755036153 L1.33135029,0.755036153 L1.33135029,1.20929327 L0.778970355,1.20929327 L0.778970355,0.755036153 Z M3.55128128,0.0735316833 C3.20069198,0.0715122348 2.7142888,0.104536157 2.7142888,0.775705802 L2.7142888,2.54806883 L3.37171685,2.54806883 L3.37171685,2.11448136 L4.00890735,2.11448136 L4.00890735,2.53773401 L4.66972783,2.53773401 L4.66972783,0.67936623 C4.66972783,0.0964583632 4.03195243,0.0735316833 3.69025361,0.0735316833 L3.55128128,0.0735316833 Z M3.38177714,0.713578064 L3.99861311,0.713578064 L3.99861311,1.41230724 L3.38177714,1.41230724 L3.38177714,0.713578064 Z M5.32844266,0.0750759674 L6.00868183,0.0750759674 L6.00868183,2.51468853 L5.32844266,2.51468853 L5.32844266,0.0750759674 Z M6.72097353,0.107505934 L6.72097353,2.5471185 L8.35810976,2.5471185 L8.35810976,1.89946949 L7.39080147,1.89946949 L7.39080147,0.0968147364 L6.72097353,0.107505934 Z M10.5265695,0.0857671653 L10.5265695,0.744226164 L9.43163596,0.744226164 L9.43163596,0.981689548 L9.8994393,0.981689548 C9.8994393,0.981689548 10.6543118,0.970998351 10.6543118,1.74812965 C10.6543118,2.52537973 10.3033715,2.56861969 9.59119679,2.56861969 L8.73022339,2.56861969 L8.73022339,1.97490183 L9.71882205,1.97490183 C10.0164194,1.97490183 10.0329136,1.87642402 10.0329136,1.79065686 C10.0329136,1.70500848 9.88083946,1.66521347 9.57131017,1.66521347 C9.26178088,1.66521347 8.68775962,1.51066626 8.68775962,0.906257208 C8.68775962,0.301729363 8.98547393,0.0749571763 9.58066858,0.0749571763 C10.1758632,0.0750759674 10.5265695,0.0857671653 10.5265695,0.0857671653 Z" id="Shape"></path>
                </g>
                <path d="M10.0613397,1.16439024 C8.92090092,0.592886319 7.75285482,0.534797477 6.55685048,0.963989676 C5.45630189,1.35908883 4.57836638,2.0660146 3.9258515,3.02869757 C2.82155954,4.65803613 2.01954411,6.43586355 1.5697557,8.36693147 C1.33977286,9.3555109 1.19062326,10.3037014 1.23074743,11.3244732 C1.23402287,11.4073894 1.24607182,11.5208348 1.25414344,11.5208348 L6.89422103,11.5208348 C6.87819476,11.5208348 6.8674326,11.486623 6.85351197,11.4503917 C6.55685048,10.6812194 6.3218375,9.91905582 6.15946915,9.10961335 C5.92609389,7.94736135 5.80396668,6.7883167 6.04494565,5.61525471 C6.3823162,3.97249276 7.30447018,2.79966835 8.85890148,2.18539964 C9.73941055,1.83710417 10.5749993,1.94259066 11.3081134,2.59582285 C11.3148983,2.60188119 11.3285849,2.60152482 11.3464829,2.6044946 L11.5862921,2.23778651 C11.1246887,1.7913696 10.617463,1.44307413 10.0613397,1.16439024 Z M1.23063044,8.80693366 L0.125168686,8.72211682 L0,9.80858011 L1.04006989,9.93544899 L1.23063044,8.80693366 Z M2.16670505,5.47852617 C1.8287496,5.34441103 1.5139562,5.21920523 1.18840064,5.08972294 C1.07984312,5.40309383 0.978538372,5.69472595 0.872086499,6.00144454 C1.21355135,6.112633 1.53512959,6.21728795 1.8692247,6.325863 L2.16670505,5.47852617 Z M6.78425976,10.5696746 C7.11823789,10.5948583 7.4529179,10.6124394 7.82152213,10.6341782 C7.68757994,10.3515742 7.56884516,10.0960545 7.44414439,9.8433859 C7.4305747,9.81594516 7.38448455,9.78945474 7.35325087,9.78897958 C7.06992511,9.78482189 6.78624842,9.78648497 6.48514169,9.78648497 C6.55287316,10.0359463 6.6119481,10.265807 6.68096635,10.492698 C6.69126059,10.5269098 6.74682613,10.5668236 6.78425976,10.5696746 Z M3.82478071,2.71710855 L3.08160626,2.21735444 C2.88238918,2.44341388 2.69030789,2.66139553 2.48734745,2.89149386 L3.25146133,3.41298674 L3.82478071,2.71710855 Z M6.19175565,7.78069745 C6.19070283,7.81122676 6.21772523,7.85969352 6.24392877,7.87181022 C6.51169617,7.99392745 6.78215412,8.11034272 7.07670996,8.23923105 C7.06442705,8.00283679 7.05612146,7.80516842 7.04231782,7.60797521 C7.03974425,7.57257547 7.02325006,7.52137651 6.99739746,7.5067652 C6.75162232,7.36849238 6.50245474,7.23663427 6.22977418,7.08980849 C6.21480073,7.34271471 6.1997103,7.5614091 6.19175565,7.78069745 Z M5.97159914,0.933103994 L5.46273579,0.346751185 L4.76214209,0.716547841 L5.27170732,1.34697214 L5.97159914,0.933103994 Z M6.2907208,5.59886154 C6.27563037,5.63449887 6.29575094,5.70957484 6.32558086,5.73701558 C6.52877526,5.92316121 6.73898847,6.10122905 6.97271467,6.3044806 C7.02629154,6.07675809 7.07670996,5.87386291 7.11952467,5.66954224 C7.12712837,5.63307338 7.11660017,5.57296509 7.09168341,5.5527706 C6.90977938,5.40380658 6.72214334,5.2622076 6.52760546,5.11134292 C6.44209302,5.28370879 6.35927113,5.4381372 6.2907208,5.59886154 Z M7.45397072,0.624841121 C7.7136665,0.632206169 7.97371321,0.628880018 8.2480315,0.628880018 C8.22065816,0.435012963 8.20767338,0.287949597 8.17503593,0.145756665 C8.16532659,0.103585828 8.1023913,0.0470412707 8.06016149,0.0435963292 C7.79988082,0.0220951423 7.53843034,0.0138985573 7.25182914,0 C7.29008163,0.195648921 7.31920967,0.368133581 7.36038665,0.537648463 C7.36927714,0.573760953 7.42098234,0.624128375 7.45397072,0.624841121 Z M7.77028485,4.00967437 C7.7835036,3.98449066 7.78689603,3.9386373 7.7729754,3.91654216 C7.64523315,3.71388456 7.5128117,3.51419675 7.37547708,3.30429289 L6.93060184,3.71899258 L7.54580008,4.41118825 C7.62827104,4.26507521 7.70220245,4.13891908 7.77028485,4.00967437 Z M8.24990318,2.63146017 C8.34442309,2.80952801 8.43005251,2.9709651 8.51556495,3.13263977 C8.93119517,2.90147232 8.97108538,2.81748702 8.82380746,2.48427802 L8.24990318,2.63146017 Z M10.2387985,1.08753241 C10.411812,1.19586988 10.594418,1.28805176 10.7800653,1.38973693 L10.9042982,1.19325648 L10.2116591,0.678415902 C10.2020668,0.78307085 10.1875612,0.856483742 10.1913046,0.928589932 C10.1942291,0.983827788 10.2034705,1.06531847 10.2387985,1.08753241 Z M10.6981793,2.47703176 C10.347239,2.43533609 10.230259,2.39411558 9.9962988,2.35135079 L9.9962988,2.6737498 C10.230259,2.69430066 10.347239,2.71401998 10.6981793,2.73468963 L10.6981793,2.47703176 Z" id="Shape"></path>
            </g>
            <g id="Postgresql" transform="translate(23.000000, 96.004078)">
                <path d="M14.4319708,9.45344875 C14.3703329,9.17110394 14.1190916,8.84181504 13.6112491,8.84181504 C13.5067328,8.84181504 13.3928367,8.85542202 13.2648711,8.88297615 C13.0266944,8.93230145 12.8250313,8.95611367 12.6471525,8.96529838 C14.0316596,6.56944953 14.9304335,3.24356365 14.0407043,2.08901147 C12.8669049,0.56741103 11.2891095,0.340174478 10.4529784,0.340174478 L10.3742561,0.340174478 C10.0627169,0.34561727 9.73945309,0.384056986 9.41484931,0.455833801 L8.21391586,0.718788673 C8.04726717,0.69638612 7.8795062,0.683552474 7.71143324,0.680348957 L7.64443556,0.680348957 C7.11079902,0.680348957 6.62372587,0.794647581 6.19058585,1.01133872 L5.77084537,0.843632706 C5.1946653,0.612314061 4.32872026,0.337453082 3.47014496,0.337453082 C3.42190663,0.337453082 3.37467326,0.33881378 3.32609994,0.341535176 C2.48092418,0.372150879 1.75600925,0.697697855 1.22739754,1.28245778 C0.567805358,2.01179186 0.268325718,3.0802799 0.336328365,4.45696601 C0.339008273,4.52738213 1.1590599,11.5659323 3.48320951,11.5659323 L3.51335846,11.5659323 C3.815853,11.5581082 4.10360804,11.4342847 4.37193376,11.1992242 C4.57728166,11.3557044 4.84292747,11.4475515 5.09014892,11.4849707 C5.25395825,11.5247712 5.54807808,11.5791991 5.9001509,11.5791991 C6.33061101,11.5791991 6.71953255,11.4900734 7.05318101,11.3281503 C7.05318101,11.6285244 7.05184106,12.0071386 7.0478212,12.4908667 L7.0478212,12.5174003 L7.04916115,12.5425732 C7.08199001,13.0249406 7.16439716,13.4593434 7.28700292,13.8012188 C7.63941073,14.7737776 8.24774969,15.3092122 8.99879371,15.3092122 C9.03028262,15.3092122 9.06311148,15.3092122 9.0942654,15.3064908 C9.71332399,15.2680511 10.3404223,14.9146098 10.7705474,14.363187 C11.2378563,13.766521 11.3450525,13.1365178 11.3869261,12.6541504 L11.389606,12.6235347 L11.389606,11.2070482 L11.4237748,11.2097696 L11.5701648,11.2233766 L11.5845693,11.2243971 L11.5979688,11.2243971 C11.6395074,11.2271185 11.6827209,11.2284792 11.7259344,11.2284792 C12.2310969,11.2284792 12.8525004,11.0941103 13.2725759,10.8961287 C13.674562,10.7076721 14.5917602,10.1878855 14.4319708,9.45310858 L14.4319708,9.45344875 Z" id="Path" fill="#FFFFFF"></path>
                <path d="M10.7196292,10.8855833 C10.7196292,10.8165279 10.723649,10.7580179 10.7263289,10.6930446 L10.7196292,10.5454088 L10.7300138,10.5375848 C10.7799271,9.62863861 11.0271485,9.27757855 11.2914544,9.0782363 C11.2546057,9.02652978 11.2117272,8.97074117 11.1725335,8.91767395 C11.0613174,8.76867753 10.9212922,8.58430296 10.7732273,8.34754152 L10.7457583,8.2944743 C10.723649,8.23868569 10.6687109,8.14139579 10.5993683,8.01553123 C10.204082,7.28721767 9.37833558,5.77242072 9.94379602,4.81550992 C10.1910175,4.39709531 10.6539714,4.15523125 11.3239483,4.09536054 C11.0492578,3.30615575 10.0248632,1.39913763 7.69937366,1.36069791 L7.6980337,1.36069791 C5.67369873,1.32736081 5.00908172,3.19423835 4.79334918,4.31069099 C5.09014892,4.18312556 5.4318371,4.10454526 5.74337632,4.10454526 L5.75778082,4.10454526 C6.5245693,4.10998805 7.05184106,4.52602143 7.20493076,5.2461708 C7.31748687,5.77344125 7.37108501,6.23471784 7.36974506,6.65857524 C7.36706515,7.58350965 7.18248654,8.06995915 7.02135711,8.49891917 L6.96943391,8.63737018 C6.92756036,8.7516688 6.88434685,8.85644254 6.84213831,8.95611367 C6.80059975,9.05816601 6.76241107,9.1476319 6.73628197,9.22995412 C6.89875135,9.26737331 7.02571196,9.31907983 7.11314394,9.35888025 L7.16305721,9.38133176 C7.17880167,9.38813525 7.19454612,9.39595927 7.20895062,9.40412345 C7.49268581,9.57931331 7.67056465,9.84907167 7.70875333,10.1640732 C7.72818266,10.3341605 7.72550275,11.4887127 7.71779802,12.4959693 C7.74794698,12.9334337 7.81996949,13.3001418 7.91678114,13.565818 C8.05412639,13.9444322 8.39581457,14.6686637 9.05373181,14.6275026 C9.51300092,14.5982476 9.95418066,14.3138617 10.2472955,13.9403501 C10.5611797,13.5389442 10.6764157,13.093996 10.7209691,12.5942797 L10.7209691,10.8855833 L10.7196292,10.8855833 Z" id="Path" fill="#33466B"></path>
                <path d="M4.72769146,9.15681661 C4.18735515,8.58396279 3.92438924,7.81312742 4.0238808,7.09569944 C4.1193525,6.40344438 4.06407941,5.72717752 4.0356054,5.36183013 C4.02779136,5.27469725 4.02254087,5.18734689 4.01986094,5.09989578 C4.01986094,5.09717438 4.0212009,5.09479316 4.0212009,5.09207177 C4.0212009,5.09071107 4.01986094,5.09071107 4.01986094,5.08935037 C4.06039454,4.06100292 4.45032105,2.43939118 5.52462889,1.47635724 C5.00271694,1.26646958 4.14950146,0.99126843 3.34988412,1.02052343 C2.09635748,1.06712734 0.883364442,1.94681854 1.00496524,4.42226822 C1.05085865,5.35094454 2.08463289,10.9202811 3.49761401,10.8855833 C3.69927703,10.8801405 3.90864479,10.7488332 4.12437733,10.4855381 C4.41912327,10.1267684 4.7215788,9.77460322 5.03152595,9.42929636 C4.92320253,9.34690758 4.82159533,9.25578591 4.72769146,9.15681661 Z" id="Path" fill="#33466B"></path>
                <path d="M12.0672876,4.33042111 C12.0726474,4.3838285 12.0672876,4.42771101 12.0595828,4.46989265 C12.0699675,4.78251299 12.0374736,5.08662897 12.0033048,5.38019955 C11.9753154,5.60089079 11.9560938,5.82263761 11.9456868,6.04490048 C11.938987,6.26397284 11.969136,6.48032381 12.0019648,6.70926124 C12.0766672,7.24605656 12.1550545,7.85190731 11.7453637,8.55878987 C11.8200661,8.65982169 11.8867288,8.75268933 11.9406619,8.84317574 C13.4846235,6.30105186 14.106027,3.27792127 13.5134325,2.50742608 C12.6143236,1.34198832 11.3695067,1.00453523 10.3846408,1.02052343 C10.0757815,1.02596623 9.79573114,1.06814786 9.55621442,1.12019456 C11.2562806,1.95702377 12.0136894,3.75110397 12.0672876,4.33042111 Z" id="Path" fill="#33466B"></path>
                <path d="M13.3995365,9.54869761 C12.5071273,9.73613374 12.0780072,9.63646262 11.8686394,9.5061758 C11.8358106,9.52998801 11.8016417,9.551419 11.7704878,9.5714893 C11.6462071,9.64700803 11.448564,9.76947084 11.3999906,10.5175145 C11.4287996,10.5229573 11.4525838,10.5253385 11.4823978,10.532142 L11.6291227,10.5454088 C12.0713074,10.5654791 12.6498324,10.4402949 12.9898456,10.2797326 C13.7214603,9.93411529 14.1204315,9.39868066 13.3995365,9.54869761 Z" id="Path" fill="#33466B"></path>
                <path d="M7.04246138,10.2450348 C7.02939683,10.1440029 6.97579869,10.0616807 6.87764708,9.99670739 L6.84079836,9.98071919 C6.72087251,9.92629128 6.58319227,9.86505987 6.36477982,9.86505987 L6.36343987,9.86505987 C6.32022637,9.86914197 6.27835281,9.87186336 6.23647926,9.87186336 C6.2180549,9.87186336 6.20130548,9.86914197 6.18422107,9.86914197 C6.02577155,9.9926253 5.79965437,10.0882143 5.2408937,10.2052343 C4.24262824,10.4630866 4.83220784,10.7685633 5.21442962,10.8151672 C5.5849268,10.9093955 6.46561134,11.0236941 7.05016612,10.539966 C7.05068399,10.4415975 7.04811445,10.3432371 7.04246138,10.2450348 Z" id="Path" fill="#33466B"></path>
                <path d="M6.59257194,5.61287889 C6.49542531,5.71663211 6.34133064,5.80541765 6.16981657,5.77752334 C5.89244616,5.73262031 5.6803985,5.39244583 5.69614295,5.2648804 C5.71054746,5.13731497 5.94738426,5.07098095 6.22341471,5.11724468 C6.32056135,5.13323288 6.40765834,5.16112719 6.48135579,5.19446428 C6.3741595,4.96042424 6.18020121,4.8250348 5.88440644,4.7930584 C5.35981459,4.73318769 4.80373383,5.01077007 4.69251767,5.16520928 C4.69385763,5.20364899 4.69921744,5.25127342 4.70290231,5.30740221 C4.73439122,5.69792251 4.79200923,6.42487537 4.68615289,7.19162865 C4.6164753,7.69644757 4.81813833,8.26930139 5.21074475,8.6863553 C5.46466596,8.95509314 5.76012574,9.12518038 6.0532406,9.1755262 C6.09008933,9.01224245 6.15675202,8.85372115 6.22475467,8.6904374 C6.26260836,8.59995099 6.30314196,8.50436196 6.34133064,8.40060874 L6.39492878,8.25603459 C6.54265867,7.86245272 6.69574838,7.45594422 6.69976824,6.65585384 C6.70110819,6.34765577 6.66291951,5.99693588 6.59257194,5.61287889 Z" id="Path" fill="#33466B"></path>
                <path d="M11.3386878,6.80621096 C11.303179,6.55788359 11.2680052,6.30105186 11.2757099,6.02210879 C11.2837497,5.76969933 11.3112187,5.53191737 11.3386878,5.30195942 C11.3581171,5.11996607 11.3752015,4.94579674 11.3842462,4.77468898 C10.9524461,4.8104073 10.666031,4.93797273 10.5300257,5.15194247 C10.5913785,5.12997437 10.6549857,5.11513879 10.7196292,5.10771979 C11.0194438,5.06791938 11.2365163,5.15568439 11.2613054,5.32441093 C11.2810698,5.44823444 11.1775583,5.56355359 11.1316649,5.6087968 C11.0388731,5.70064391 10.9222972,5.75915392 10.8033763,5.77514212 C10.6685373,5.79000486 10.5329438,5.75497776 10.4214895,5.67649152 C10.4593432,6.34765577 10.9460813,7.24605656 11.1852631,7.68590216 C11.2378563,7.78013049 11.2770499,7.8559894 11.3098788,7.91960203 C11.4405242,7.53962714 11.3922859,7.19298934 11.3386878,6.80621096 Z" id="Path" fill="#33466B"></path>
            </g>
            <g id="Photoshop" transform="translate(118.000000, 95.000000)" fill="#FFFFFF">
                <path d="M14.9066667,0.085723356 C10.5944048,0.0844263039 6.30142857,0.0845442177 1.98904762,0.0845442177 C1.3722619,0.0845442177 0.744880952,0.0840725624 0.128095238,0.0858412698 C0.089047619,0.0859591837 -1.33226763e-15,0.103882086 -1.33226763e-15,0.113668934 L-1.33226763e-15,14.9750567 L15,14.9750567 L15,0.113668934 C15,0.103882086 14.9507143,0.085723356 14.9066667,0.085723356 Z M13.3904762,13.5207075 C9.50464286,13.5162268 5.62011905,13.5171701 1.73428571,13.5171701 C1.54666667,13.5171701 1.5475,13.5168163 1.5475,13.3253243 L1.5475,1.79370522 C1.54761905,1.60421769 1.54571429,1.65079365 1.73535714,1.65079365 L13.3779762,1.65079365 C13.5729762,1.65079365 13.5714286,1.60409977 13.5714286,1.80302041 L13.5714286,7.56157823 C13.5714286,9.48593197 13.5705952,11.4102857 13.5757143,13.3345215 C13.5761905,13.4810884 13.5413095,13.5208254 13.3904762,13.5207075 Z M6.6452381,4.67457596 C5.85142857,4.49027664 5.05238095,4.58118821 4.25416667,4.66195918 C4.0847619,4.6791746 4.05238095,4.75098413 4.05285714,4.8999093 C4.05797619,6.69302494 4.04761905,8.48614059 4.04761905,10.2792562 L4.04761905,10.3764172 L5.11904762,10.3764172 L5.11904762,8.27035828 C5.71428571,8.31457596 6.25904762,8.30408163 6.79154762,8.11589116 C7.645,7.81426757 8.07154762,7.15949206 8.02547619,6.20344671 C7.98821429,5.43134694 7.49857143,4.8726712 6.6452381,4.67457596 Z M6.4127381,7.30924263 C6.0325,7.49283447 5.62821429,7.48847166 5.22166667,7.43399546 C5.19,7.42975057 5.14130952,7.3737415 5.14107143,7.34155102 C5.13630952,6.71295238 5.1375,6.08447166 5.1375,5.4386576 C5.5102381,5.38111565 5.86369048,5.35305215 6.21630952,5.44078005 C6.65357143,5.54961451 6.9072619,5.83213605 6.95452381,6.25639002 C7.00642857,6.72262132 6.80607143,7.11940136 6.4127381,7.30924263 Z M10.3771429,8.14713832 C10.2022619,8.05221769 10.0104762,7.98830839 9.82880952,7.90506122 C9.66095238,7.82806349 9.49154762,7.7522449 9.33190476,7.66027211 C9.22059524,7.5962449 9.17,7.48434467 9.17,7.35239909 C9.17,7.12930612 9.32404762,6.94948753 9.58714286,6.92814512 C9.78345238,6.91222676 9.9872619,6.93227211 10.1816667,6.96823583 C10.3454762,6.99842177 10.5008333,7.07424036 10.667619,7.13272562 L10.8779762,6.39352381 C10.4797619,6.20203175 10.0745238,6.12998639 9.65357143,6.14472562 C9.29571429,6.15710658 8.96142857,6.24742857 8.65928571,6.45118367 C8.09464286,6.83192744 7.81916667,7.84339229 8.66535714,8.38685714 C8.8802381,8.52493424 9.12880952,8.61148299 9.36190476,8.72185034 C9.50690476,8.7905941 9.65821429,8.84907937 9.79535714,8.93079365 C9.96821429,9.03385034 10.0270238,9.20164172 9.99702381,9.39537415 C9.96761905,9.58580499 9.83869048,9.70643084 9.65940476,9.7342585 C9.45940476,9.76538776 9.24678571,9.78555102 9.05011905,9.7512381 C8.77166667,9.70277551 8.50261905,9.60019048 8.21988095,9.51788662 C8.16916667,9.70536961 8.12095238,9.91278005 8.05511905,10.1145306 C8.01904762,10.2251338 8.0402381,10.2797279 8.1497619,10.3230023 C8.81845238,10.586068 9.49904762,10.6401905 10.1833333,10.4075465 C10.6947619,10.2336236 11.0065476,9.87410431 11.0471429,9.32639456 C11.0866667,8.79259864 10.8438095,8.40065306 10.3771429,8.14713832 Z" id="Shape"></path>
            </g>
            <g id="Mongodb" transform="translate(125.724231, 74.751351) rotate(43.000000) translate(-125.724231, -74.751351) translate(121.224231, 65.751351)" fill="#FFFFFF">
                <path d="M8.36348372,8.21203497 C8.30852355,7.51622204 8.14126637,6.84524919 7.90865115,6.18793112 C7.42678412,4.7201871 6.65347962,3.42123945 5.56422839,2.30358084 C5.28883336,2.02089776 4.9825418,1.76189265 4.79047827,1.41006407 C4.66897173,1.18752014 4.55325828,0.961925676 4.4348711,0.737638585 L4.35985789,0.552717945 C4.3472319,0.595134934 4.33921069,0.610242354 4.33876506,0.625495039 C4.3291099,0.991123672 4.11729042,1.23908874 3.85348158,1.47049375 C3.55684519,1.73095149 3.28070745,2.01363458 2.99565725,2.286585 C2.70332854,2.66252735 2.41114838,3.0384697 2.11911675,3.41426679 C1.88263947,3.839163 1.64645926,4.26405921 1.41027905,4.68895541 L0.936433233,5.94069237 L0.922173296,5.96015771 C0.661335283,6.7980385 0.532698768,7.65945201 0.469420298,8.52958133 C0.445653736,8.85656983 0.4726882,9.18835203 0.491552908,9.5170837 C0.518438831,9.98701164 0.601918879,10.4489501 0.72713895,10.9036253 C1.18197152,12.5555637 2.10500536,13.9258358 3.36686124,15.0899788 C3.60140749,15.3062764 3.84204393,15.5029634 4.08683951,15.708802 C4.12872808,15.5686225 4.1621498,15.4284431 4.2001763,15.2882637 C4.2382028,15.1486653 4.27667492,15.0097932 4.30237252,14.8697591 C4.27652638,15.0097932 4.24756088,15.1486653 4.21889247,15.2882637 L4.09619759,15.708802 L4.20582086,16.0721064 L4.30742291,16.6363104 L4.35584728,17.225064 C4.35540166,17.344616 4.3504998,17.4644586 4.35792685,17.5838653 C4.35970935,17.6143707 4.40070666,17.6425518 4.42358198,17.6718951 L4.62797441,17.7420574 L4.84098222,17.8231145 L4.80444113,17.2997296 L4.80280718,16.7843341 L4.87633498,15.999184 L4.9296612,15.8282087 L5.08221282,15.5638288 C5.27056282,15.4156599 5.47272713,15.2811457 5.644292,15.1162715 C5.95474271,14.8178999 6.26445071,14.5157515 6.5422224,14.1890535 C6.90273143,13.7653194 7.21288506,13.3028 7.4618398,12.8067245 C7.62850281,12.4749423 7.78536211,12.136478 7.91518696,11.7897337 C8.02956353,11.4840989 8.1004176,11.162921 8.19058199,10.8485704 C8.1986032,10.8259093 8.20929816,10.8036839 8.21434855,10.780587 C8.40061898,9.93210197 8.43196113,9.07504638 8.36348372,8.21203497 Z M4.85806443,15.3844282 L4.73848892,15.1283284 L4.85806443,15.3844282 L5.03378845,15.5311445 L4.85806443,15.3844282 Z" id="Shape"></path>
            </g>
            <g id="Express" transform="translate(118.000000, 42.000000)" fill="#FFFFFF" fill-rule="nonzero">
                <path d="M14.9607143,8.29214286 C14.4178571,8.42678571 14.0821429,8.29794643 13.7809524,7.856875 C13.1047619,6.86910714 12.3583333,5.92660714 11.6380952,4.96669643 C11.5452381,4.8425 11.4488095,4.720625 11.3285714,4.56625 C10.4761905,5.6875 9.625,6.75535714 8.82619048,7.86616071 C8.54047619,8.263125 8.24047619,8.43607143 7.70714286,8.295625 L10.9119048,4.10196429 L7.92857143,0.314553571 C8.44166667,0.217053571 8.79642857,0.266964286 9.11071429,0.715 C9.8047619,1.70392857 10.5702381,2.64526786 11.3333333,3.64116071 C12.1011905,2.64875 12.8571429,1.70625 13.5714286,0.726607143 C13.8583333,0.329642857 14.1666667,0.17875 14.6821429,0.325 C14.2916667,0.829910714 13.9095238,1.32669643 13.525,1.82 C13.0059524,2.48508929 12.4964286,3.15830357 11.9583333,3.80946429 C11.7666667,4.04160714 11.797619,4.1925 11.9690476,4.411875 C12.9642857,5.6875 13.947619,6.97589286 14.9607143,8.29214286 Z M0.0392857143,4.03232143 C0.125,3.61330357 0.182142857,3.18616071 0.301190476,2.77526786 C1.01547619,0.287857143 3.94404762,-0.746339286 5.95595238,0.795089286 C7.13452381,1.69928571 7.42738095,2.97375 7.36904762,4.41071429 L0.726190476,4.41071429 C0.626190476,6.98866071 2.5297619,8.54517857 4.95595238,7.75125 C5.80714286,7.47267857 6.30833333,6.82267857 6.55952381,6.01017857 C6.68690476,5.60276786 6.89761905,5.53892857 7.29047619,5.655 C7.08928571,6.67178571 6.63333333,7.52142857 5.68095238,8.05303571 C4.25238095,8.84928571 2.21309524,8.59160714 1.14047619,7.48544643 C0.507142857,6.83544643 0.238095238,6.02642857 0.119047619,5.15241071 C0.101190476,5.013125 0.0642857143,4.87616071 0.0357142857,4.73803571 C0.0380952381,4.50279762 0.0392857143,4.26755952 0.0392857143,4.03232143 Z M0.738095238,3.859375 L6.74166667,3.859375 C6.70238095,1.99526786 5.51190476,0.670892857 3.88452381,0.659285714 C2.09880952,0.645357143 0.81547619,1.93839286 0.738095238,3.859375 Z" id="Shape"></path>
            </g>
            <g id="SKETCH" transform="translate(119.000000, 120.240970)" stroke="#FFFFFF" stroke-linecap="round" stroke-linejoin="round">
                <polygon id="Path" points="0 4.75428609 13.9189901 4.75428609 6.95949503 13.1991608"></polygon>
                <polyline id="Path" points="0 4.55524805 2.72328067 0.634413371 2.42069392 4.55524805 6.95949503 13.0001227 11.4982961 4.55524805 11.1957094 0.634413371 13.9189901 4.55524805"></polyline>
                <polyline id="Path" points="3 0.431759915 6.9683245 0.143919972 10.936649 0.431759915"></polyline>
                <polyline id="Path" points="2.1137105 4.85685072 6.65251161 0.634413371 11.1913127 4.85685072"></polyline>
            </g>
        </g>
        <g id="LANGUAGES" transform="translate(16.000000, -14.000000)" fill="#FFFFFF">
            <g id="Ref--1" transform="translate(29.000000, 39.000000)" font-family="Ubuntu-Medium, Ubuntu Medium" font-size="8" font-weight="normal">
                <text id="JavaScript">
                    <tspan x="0" y="9">JavaScript</tspan>
                </text>
                <text id="Python">
                    <tspan x="0" y="35">Python</tspan>
                </text>
                <text id="Ruby">
                    <tspan x="0" y="63">Ruby</tspan>
                </text>
                <text id="SQL">
                    <tspan x="0" y="91">SQL</tspan>
                </text>
            </g>
            <path d="M13.558,79.1865855 C13.1965,79.1865855 12.904,78.9176992 12.904,78.5853833 C12.904,78.2530673 13.1965,77.9848704 13.558,77.9848704 C13.9195,77.9848704 14.212,78.2530673 14.212,78.5853833 C14.212,78.9176992 13.9195,79.1865855 13.558,79.1865855 M11.554,80.2442051 C15.3625,80.2442051 15.12475,78.7260315 15.12475,78.7260315 L15.12025,77.1533912 L11.4865,77.1533912 L11.4865,76.6811165 L16.56325,76.6811165 C16.56325,76.6811165 19,76.9355243 19,73.403461 C19,69.8713977 16.87375,69.9961886 16.87375,69.9961886 L15.604,69.9961886 L15.604,71.6357057 C15.604,71.6357057 15.67225,73.5903025 13.5115,73.5903025 L9.907,73.5903025 C9.907,73.5903025 7.882,73.5606561 7.882,75.3897726 L7.882,78.4137097 C7.882,78.4137097 7.5745,80.2442051 11.554,80.2442051 M9.44275,67.584485 C9.80425,67.584485 10.096,67.8533713 10.096,68.1856873 C10.096,68.5180032 9.80425,68.7862001 9.44275,68.7862001 C9.08125,68.7862001 8.78875,68.5180032 8.78875,68.1856873 C8.78875,67.8533713 9.08125,67.584485 9.44275,67.584485 M11.446,66.5268654 C7.63825,66.5268654 7.876,68.045039 7.876,68.045039 L7.8805,69.6176793 L11.51425,69.6176793 L11.51425,70.0899541 L6.43675,70.0899541 C6.43675,70.0899541 4,69.8355462 4,73.3676095 C4,76.8996728 6.127,76.774882 6.127,76.774882 L7.396,76.774882 L7.396,75.1353648 C7.396,75.1353648 7.32775,73.180768 9.48925,73.180768 L13.093,73.180768 C13.093,73.180768 15.118,73.2104144 15.118,71.3812979 L15.118,68.3573608 C15.118,68.3573608 15.4255,66.5268654 11.446,66.5268654" id="python-[#127]"></path>
            <g id="JS" transform="translate(4.000000, 39.000000)">
                <path d="M14.3353448,3.42342227 L8.14137931,0.152546277 C7.75344828,-0.0508487591 7.23103448,-0.0508487591 6.84051724,0.152546277 L0.649137931,3.42342227 C0.248275862,3.63391248 0,4.03124232 0,4.4545878 L0,10.9892446 C0,11.4125901 0.248275862,11.8099199 0.649137931,12.0227752 L2.27327586,12.8789264 C3.05948276,13.2336852 3.34137931,13.2336852 3.70086207,13.2336852 C4.86465517,13.2336852 5.53448276,12.5903893 5.53448276,11.4669864 L5.53448276,5.01510668 C5.53448276,4.9228694 5.45431034,4.85191764 5.35603448,4.85191764 L4.56982759,4.85191764 C4.46896552,4.85191764 4.3887931,4.9228694 4.3887931,5.01510668 L4.3887931,11.4669864 C4.3887931,11.9660138 3.825,12.460311 2.90431034,12.0393306 L1.20775862,11.1429734 C1.14827586,11.1122277 1.10948276,11.0554663 1.10948276,10.9916097 L1.10948276,4.45695286 C1.10948276,4.39546134 1.14827586,4.33396982 1.20775862,4.300859 L7.39655172,1.03471312 C7.45344828,1.00396736 7.53103448,1.00396736 7.58793103,1.03471312 L13.7767241,4.300859 C13.8362069,4.33396982 13.8724138,4.39309628 13.8724138,4.45695286 L13.8724138,10.9916097 C13.8724138,11.0554663 13.8362069,11.1145927 13.7767241,11.1453385 L7.58534483,14.4114844 C7.53362069,14.4398651 7.45086207,14.4398651 7.39396552,14.4114844 L5.80603448,13.548238 C5.75948276,13.5222223 5.69741379,13.5151272 5.65344828,13.5387777 C5.2137931,13.7658234 5.13103448,13.7965691 4.71982759,13.9266474 C4.61896552,13.9597582 4.46637931,14.0141545 4.77672414,14.1726134 L6.84310345,15.2912861 C7.04224138,15.3953487 7.26724138,15.4497451 7.49224138,15.4497451 C7.72241379,15.4497451 7.94741379,15.3953487 8.14396552,15.2912861 L14.3353448,12.0227752 C14.7362069,11.8099199 14.987069,11.4149552 14.987069,10.9892446 L14.987069,4.45695286 C14.9844828,4.03124232 14.7362069,3.63627754 14.3353448,3.42342227 Z" id="Path"></path>
                <path d="M9.64655172,10.3672342 C7.8,10.3672342 7.39137931,9.94152367 7.25689655,9.10192788 C7.24137931,9.01205566 7.15603448,8.94583402 7.05517241,8.94583402 L6.15258621,8.94583402 C6.04137931,8.94583402 5.95086207,9.02861107 5.95086207,9.13030858 C5.95086207,10.2064102 6.58965517,11.488272 9.64655172,11.488272 C11.8577586,11.488272 13.1275862,10.6912472 13.1275862,9.3005928 C13.1275862,7.92176366 12.1086207,7.55517958 9.96206897,7.29502314 C7.79482759,7.03250164 7.57241379,6.8976933 7.57241379,6.43177676 C7.57241379,6.04863728 7.75862069,5.53778463 9.36465517,5.53778463 C10.8,5.53778463 11.3275862,5.8192266 11.5448276,6.7037585 C11.562931,6.78653555 11.6456897,6.84802707 11.7413793,6.84802707 L12.6465517,6.84802707 C12.7034483,6.84802707 12.7551724,6.82674154 12.7939655,6.78890061 C12.8327586,6.75105967 12.8534483,6.69902838 12.8482759,6.64699709 C12.7086207,5.12389938 11.6017241,4.41438181 9.36465517,4.41438181 C7.37327586,4.41438181 6.1862069,5.18302584 6.1862069,6.4696177 C6.1862069,7.86736731 7.36810345,8.25287186 9.27672414,8.42552113 C11.562931,8.63128123 11.7413793,8.93637378 11.7413793,9.34789397 C11.7439655,10.0645067 11.1181034,10.3672342 9.64655172,10.3672342 Z" id="Path"></path>
            </g>
            <path d="M12.5,125.608469 C14.0466926,125.608469 15.4766537,125.458586 16.8190661,125.188796 C18.1614786,124.889029 19.2120623,124.469355 20,123.899797 L20,125.608469 C20,126.05812 19.6789883,126.507771 19.0077821,126.897468 C18.3365759,127.287165 17.4319066,127.616909 16.2645914,127.826745 C15.0972763,128.036582 13.8715953,128.186466 12.5,128.186466 C11.1284047,128.186466 9.90272374,128.066559 8.73540856,127.826745 C7.56809339,127.586932 6.66342412,127.287165 5.9922179,126.897468 C5.32101167,126.507771 5,126.088097 5,125.608469 L5,123.899797 C5.78793774,124.469355 6.8385214,124.889029 8.18093385,125.188796 C9.5233463,125.458586 10.9533074,125.608469 12.5,125.608469 Z M12.5,132.467139 C14.0466926,132.467139 15.4766537,132.317256 16.8190661,132.047465 C18.1614786,131.747698 19.2120623,131.328024 20,130.758467 L20,132.467139 C20,132.91679 19.6789883,133.36644 19.0077821,133.756137 C18.3365759,134.145835 17.4319066,134.475578 16.2645914,134.685415 C15.0972763,134.895252 13.8424125,135.045136 12.5,135.045136 C11.1575875,135.045136 9.90272374,134.925229 8.73540856,134.685415 C7.56809339,134.445602 6.66342412,134.145835 5.9922179,133.756137 C5.32101167,133.36644 5,132.946766 5,132.467139 L5,130.758467 C5.78793774,131.328024 6.8385214,131.747698 8.18093385,132.047465 C9.5233463,132.317256 10.9533074,132.467139 12.5,132.467139 Z M12.5,129.037804 C14.0466926,129.037804 15.4766537,128.887921 16.8190661,128.61813 C18.1614786,128.34834 19.2120623,127.89869 20,127.329132 L20,129.037804 C20,129.487455 19.6789883,129.937105 19.0077821,130.326803 C18.3365759,130.7165 17.4319066,131.046243 16.2645914,131.25608 C15.0972763,131.495894 13.8715953,131.615801 12.5,131.615801 C11.1284047,131.615801 9.90272374,131.495894 8.73540856,131.25608 C7.56809339,131.016267 6.66342412,130.7165 5.9922179,130.326803 C5.32101167,129.937105 5,129.517432 5,129.037804 L5,127.329132 C5.78793774,127.89869 6.8385214,128.318363 8.18093385,128.61813 C9.5233463,128.917897 10.9533074,129.037804 12.5,129.037804 Z M12.5,118.755795 C13.8424125,118.755795 15.0972763,118.867448 16.2645914,119.090753 C17.4319066,119.314059 18.3365759,119.593191 19.0077821,119.956062 C19.6789883,120.318934 20,120.709718 20,121.156329 L20,122.356597 C20,122.775294 19.6789883,123.193992 19.0077821,123.556864 C18.3365759,123.919735 17.4319066,124.22678 16.2645914,124.422173 C15.0972763,124.617565 13.8715953,124.757131 12.5,124.757131 C11.1284047,124.757131 9.90272374,124.645478 8.73540856,124.422173 C7.56809339,124.198867 6.66342412,123.919735 5.9922179,123.556864 C5.32101167,123.193992 5,122.803208 5,122.356597 L5,121.156329 C5,120.737631 5.32101167,120.318934 5.9922179,119.956062 C6.66342412,119.593191 7.56809339,119.286146 8.73540856,119.090753 C9.90272374,118.867448 11.1575875,118.755795 12.5,118.755795 Z" id="XMLID_8_" fill-rule="nonzero"></path>
            <g id="Ruby" transform="translate(5.000000, 92.000000)">
                <path d="M4.03890825,13.5363948 C7.16535939,13.9791976 10.2362616,14.414089 13.3681765,14.8574822 C12.3011354,13.0147141 11.2615272,11.2190602 10.2136094,9.40876424 L4.03890825,13.5363948 Z M14.3641445,3.23355056 C14.0871451,3.67070138 13.8095736,4.10749151 13.5329175,4.54488279 C12.5828131,6.04689741 11.632823,7.54891203 10.6836339,9.05164803 C10.6307741,9.13532706 10.5622393,9.20169319 10.6367236,9.33069837 C11.5538765,10.922163 12.4638212,12.5183165 13.3760542,14.1130273 C13.5199886,14.364906 13.6655248,14.6158229 13.8516785,14.8574822 C14.0361159,10.9869662 14.2204389,7.1163299 14.4047619,3.24581387 L14.3641445,3.23355056 Z M1.8678411,7.9051313 C1.91104918,7.94652025 2.01889654,7.97065409 2.06913314,7.94558754 C2.95507157,7.50499921 3.84665587,7.07420431 4.71323708,6.59735692 C4.99587553,6.44194431 5.21318335,6.16329754 5.45664647,5.93734883 C6.2628516,5.18919975 7.0677893,4.43953502 7.87238132,3.68975371 C7.92158092,3.64370121 7.97988302,3.59916436 8.00926452,3.54110324 C8.29824014,2.9695859 8.58226124,2.39515384 8.87630662,1.8041662 C8.52568747,1.67078884 8.19327332,1.54032619 7.85671119,1.42163899 C7.81108346,1.40554977 7.73918522,1.43749504 7.68975518,1.46535972 C6.91074233,1.90571488 6.11709635,2.32263573 5.36285614,2.80286419 C4.98550559,3.04315331 4.67809451,3.3972329 4.34395204,3.70560976 C3.80540655,4.20297675 3.2675524,4.70150962 2.73684197,5.20750416 C2.59604125,5.34181424 2.46768445,5.49524484 2.35799354,5.65683665 C1.99504568,6.19162858 1.64292865,6.73411535 1.2746806,7.29199183 C1.48046628,7.50733098 1.66758606,7.71322646 1.8678411,7.9051313 Z M5.01700194,7.22927706 C4.57888713,9.15286954 4.14340674,11.0656292 3.69337979,13.0412429 C5.80354688,11.6281006 7.86503455,10.2475757 9.91289199,8.876336 C8.28321944,8.32814965 6.65881572,7.78162987 5.01700194,7.22927706 Z M13.713705,3.23355056 C11.9655481,3.54294486 10.2591691,3.84484519 8.53077816,4.15067093 C9.11948678,5.66742861 9.69640325,7.15373457 10.2897164,8.68226851 C11.4375971,6.85528386 12.562792,5.06493644 13.713705,3.23355056 Z M5.07549361,6.7480942 C6.69407981,7.2736615 8.28044902,7.78883297 9.91289199,8.31902065 C9.3066583,6.84165673 8.72120977,5.41592547 8.12363657,3.96004629 C7.10574135,4.89093572 6.10308857,5.80807954 5.07549361,6.7480942 Z M1.87087031,9.40876424 C1.31729475,10.7635125 0.782539197,12.0722019 0.238095238,13.4044907 C1.28444325,13.3727967 2.2987193,13.3421288 3.34785134,13.3104347 C2.85530161,12.0093839 2.37244028,10.7338706 1.87087031,9.40876424 Z M3.59386858,12.3147471 L3.63122384,12.3056205 C3.9932244,10.6314791 4.36040718,8.96886617 4.72996516,7.22927706 C3.90555829,7.70590478 3.11915447,8.16043638 2.31126597,8.62757718 C2.72357737,9.81956679 3.16320345,11.0770042 3.59386858,12.3147471 Z M13.3681765,2.81719168 C12.8481553,2.67720148 12.3281341,2.53673714 11.8078797,2.39769522 C11.0600941,2.19784468 10.3117254,2.00048339 9.56440631,1.79885483 C9.47099142,1.7736068 9.4034668,1.7571304 9.34853745,1.87151697 C9.08438674,2.42152082 8.81207243,2.96737592 8.5437233,3.51536467 C8.53544308,3.53231522 8.53719242,3.55424425 8.53077816,3.59679842 C10.1502028,3.34740013 11.7587815,3.09954279 13.3671269,2.85180399 L13.3681765,2.81719168 Z M10.2584204,1.58961514 L14.4047619,2.8703027 C14.1670001,2.11378754 13.9464658,1.41230093 13.7196566,0.690815519 L10.2644672,1.54617825 L10.2584204,1.58961514 Z M3.93218313,13.7945498 C3.41416518,13.7362716 2.88233648,13.7898337 2.3569528,13.7987045 C1.92536708,13.8057788 1.49378136,13.8218362 1.06219564,13.834974 C1.01777108,13.8363215 0.973461616,13.8450801 0.929152149,13.8917925 C4.4972727,14.2136142 8.06527816,14.5354359 11.6332836,14.8574822 L11.6405343,14.8109943 C10.4967746,14.6586175 9.35289977,14.5062406 8.20914007,14.3539761 C6.78387139,14.1640946 5.36101959,13.9552361 3.93218313,13.7945498 Z M0.324793259,12.2068553 C0.747697525,11.0918528 1.1688022,9.97612853 1.5934002,8.86196795 C1.63584941,8.75022713 1.6325678,8.67432998 1.54946897,8.58435998 C1.37183859,8.39227162 1.20680536,8.18526845 1.01266107,7.95577278 C0.750238126,9.42800916 0.49427254,10.8638005 0.238095238,12.2994715 L0.266782862,12.3147471 C0.286366664,12.2790238 0.31029066,12.2452249 0.324793259,12.2068553 Z M9.42716124,1.38467967 C10.2226997,1.15770133 11.0298106,0.980219425 11.832198,0.78223372 C11.8841554,0.769304574 11.9349319,0.750367947 11.9860627,0.734173866 L11.978151,0.690815519 C10.8479597,0.858894412 9.71788645,1.0271039 8.53077816,1.20380223 C8.85444909,1.36012735 9.10384457,1.47688145 9.42716124,1.38467967 Z" id="Shape"></path>
            </g>
        </g>
    </g>
</svg>
