<svg width="2377px" height="1622px" viewBox="0 0 2377 1622" version="1.1" xmlns="http://www.w3.org/2000/svg" xmlns:xlink="http://www.w3.org/1999/xlink" style="">
    <!-- Generator: Sketch 52.6 (67491) - http://www.bohemiancoding.com/sketch -->
    <title>balls</title>
    <desc>Created with Sketch.</desc>
    <g id="Page-1" stroke="none" stroke-width="1" fill="none" fill-rule="evenodd">
        <path id="Rectangle" stroke="#979797" fill="#152239" width="2376" height="1621" d="M0.5 0.5 L2376.5 0.5 L2376.5 1621.5 L0.5 1621.5 Z" class="DvaMpGOU_0"></path>
        <path id="Oval" stroke="#FFFFFF" stroke-width="10" fill="#6D97B9" d="M258,731A100,100 0,1,1 458,731A100,100 0,1,1 258,731" class="DvaMpGOU_1"></path>
        <path id="Oval" stroke="#FFFFFF" stroke-width="10" fill="#6D97B9" d="M638,731A100,100 0,1,1 838,731A100,100 0,1,1 638,731" class="DvaMpGOU_2"></path>
        <path id="Oval" stroke="#FFFFFF" stroke-width="10" fill="#6D97B9" d="M1018,731A100,100 0,1,1 1218,731A100,100 0,1,1 1018,731" class="DvaMpGOU_3"></path>
        <path id="Oval" stroke="#FFFFFF" stroke-width="10" fill="#6D97B9" d="M1398,731A100,100 0,1,1 1598,731A100,100 0,1,1 1398,731" class="DvaMpGOU_4"></path>
        <path id="Oval" stroke="#FFFFFF" stroke-width="10" fill="#6D97B9" d="M1778,731A100,100 0,1,1 1978,731A100,100 0,1,1 1778,731" class="DvaMpGOU_5"></path>
        <path d="M1878,814 C1923.83963,814 1961,776.839634 1961,731 C1961,685.160366 1923.83963,648 1878,648 C1832.16037,648 1795,685.160366 1795,731 C1795,776.839634 1832.16037,814 1878,814 Z M738,814 C783.839634,814 821,776.839634 821,731 C821,685.160366 783.839634,648 738,648 C692.160366,648 655,685.160366 655,731 C655,776.839634 692.160366,814 738,814 Z M358,814 C403.839634,814 441,776.839634 441,731 C441,685.160366 403.839634,648 358,648 C312.160366,648 275,685.160366 275,731 C275,776.839634 312.160366,814 358,814 Z M1498,814 C1543.83963,814 1581,776.839634 1581,731 C1581,685.160366 1543.83963,648 1498,648 C1452.16037,648 1415,685.160366 1415,731 C1415,776.839634 1452.16037,814 1498,814 Z M1118,814 C1163.83963,814 1201,776.839634 1201,731 C1201,685.160366 1163.83963,648 1118,648 C1072.16037,648 1035,685.160366 1035,731 C1035,776.839634 1072.16037,814 1118,814 Z" id="Oval-2" stroke="#213E72" stroke-width="10" fill="#6E98BA" class="DvaMpGOU_6"></path>
        <g id="mini-circle" transform="translate(298.000000, 671.000000)" fill="#FFFFFF" stroke="#213E72" stroke-width="10">
            <path id="Oval" d="M0,60.5A60.5,60.5 0,1,1 121,60.5A60.5,60.5 0,1,1 0,60.5" class="DvaMpGOU_7"></path>
            <path id="Oval" d="M379,60.5A60.5,60.5 0,1,1 500,60.5A60.5,60.5 0,1,1 379,60.5" class="DvaMpGOU_8"></path>
            <path id="Oval" d="M759,60.5A60.5,60.5 0,1,1 880,60.5A60.5,60.5 0,1,1 759,60.5" class="DvaMpGOU_9"></path>
            <path id="Oval" d="M1139,60.5A60.5,60.5 0,1,1 1260,60.5A60.5,60.5 0,1,1 1139,60.5" class="DvaMpGOU_10"></path>
            <path id="Oval" d="M1519,60.5A60.5,60.5 0,1,1 1640,60.5A60.5,60.5 0,1,1 1519,60.5" class="DvaMpGOU_11"></path>
        </g>
        <path d="M312,731.75 C328.00995,731.75 408.059701,731.75 552.149254,731.75 C696.238806,731.75 848.333333,731.75 1008.43284,731.75 L1224.56716,731.75 L1464.71642,731.75 L1680.85075,731.75 L1921,731.75" id="Path" stroke="#FFFFFF" stroke-width="10" fill="#FFFFFF" class="DvaMpGOU_12"></path>
    </g>
</svg>
