<svg id="balls" width="2377px" height="1622px" viewBox="0 0 2377 1622" version="1.1" xmlns="http://www.w3.org/2000/svg" xmlns:xlink="http://www.w3.org/1999/xlink" style="">
    <title>balls</title>
    <desc>Created with Sketch.</desc>
    <g id="Page-1" stroke="none" stroke-width="1" fill="none" fill-rule="evenodd">
        <path id="Rectangle" stroke="#979797" fill="#152239" width="2376" height="1621" d="M-71.5 -79.5 L2304.5 -79.5 L2304.5 1541.5 L-71.5 1541.5 Z" class="xTjzJhNu_0"></path>
        <path id="Oval" stroke="#FFFFFF" stroke-width="10" fill="#6D97B9" d="M258,731A100,100 0,1,1 458,731A100,100 0,1,1 258,731" class="xTjzJhNu_1"></path>
        <path id="Oval" stroke="#FFFFFF" stroke-width="10" fill="#6D97B9" d="M638,731A100,100 0,1,1 838,731A100,100 0,1,1 638,731" class="xTjzJhNu_2"></path>
        <path id="Oval" stroke="#FFFFFF" stroke-width="10" fill="#6D97B9" d="M1018,731A100,100 0,1,1 1218,731A100,100 0,1,1 1018,731" class="xTjzJhNu_3"></path>
        <path id="Oval" stroke="#FFFFFF" stroke-width="10" fill="#6D97B9" d="M1398,731A100,100 0,1,1 1598,731A100,100 0,1,1 1398,731" class="xTjzJhNu_4"></path>
        <path id="Oval" stroke="#FFFFFF" stroke-width="10" fill="#6D97B9" d="M1778,731A100,100 0,1,1 1978,731A100,100 0,1,1 1778,731" class="xTjzJhNu_5"></path>
        <path d="M1878,814 C1923.83963,814 1961,776.839634 1961,731 C1961,685.160366 1923.83963,648 1878,648 C1832.16037,648 1795,685.160366 1795,731 C1795,776.839634 1832.16037,814 1878,814 Z M738,814 C783.839634,814 821,776.839634 821,731 C821,685.160366 783.839634,648 738,648 C692.160366,648 655,685.160366 655,731 C655,776.839634 692.160366,814 738,814 Z M358,814 C403.839634,814 441,776.839634 441,731 C441,685.160366 403.839634,648 358,648 C312.160366,648 275,685.160366 275,731 C275,776.839634 312.160366,814 358,814 Z M1498,814 C1543.83963,814 1581,776.839634 1581,731 C1581,685.160366 1543.83963,648 1498,648 C1452.16037,648 1415,685.160366 1415,731 C1415,776.839634 1452.16037,814 1498,814 Z M1118,814 C1163.83963,814 1201,776.839634 1201,731 C1201,685.160366 1163.83963,648 1118,648 C1072.16037,648 1035,685.160366 1035,731 C1035,776.839634 1072.16037,814 1118,814 Z" id="Oval-2" stroke="#213E72" stroke-width="10" fill="#6E98BA" class="xTjzJhNu_6"></path>
        <g id="mini-circle" transform="translate(298.000000, 671.000000)" fill="#FFFFFF" stroke="#213E72" stroke-width="10">
            <path id="Oval" d="M0,60.5A60.5,60.5 0,1,1 121,60.5A60.5,60.5 0,1,1 0,60.5" class="xTjzJhNu_7"></path>
            <path id="Oval" d="M379,60.5A60.5,60.5 0,1,1 500,60.5A60.5,60.5 0,1,1 379,60.5" class="xTjzJhNu_8"></path>
            <path id="Oval" d="M759,60.5A60.5,60.5 0,1,1 880,60.5A60.5,60.5 0,1,1 759,60.5" class="xTjzJhNu_9"></path>
            <path id="Oval" d="M1139,60.5A60.5,60.5 0,1,1 1260,60.5A60.5,60.5 0,1,1 1139,60.5" class="xTjzJhNu_10"></path>
            <path id="Oval" d="M1519,60.5A60.5,60.5 0,1,1 1640,60.5A60.5,60.5 0,1,1 1519,60.5" class="xTjzJhNu_11"></path>
        </g>
        <path d="M312,731.75 C328.00995,731.75 408.059701,731.75 552.149254,731.75 C696.238806,731.75 848.333333,731.75 1008.43284,731.75 L1224.56716,731.75 L1464.71642,731.75 L1680.85075,731.75 L1921,731.75" id="Path" stroke="#FFFFFF" stroke-width="10" fill="#FFFFFF" class="xTjzJhNu_12"></path>
    </g>
<style data-made-with="vivus-instant">.xTjzJhNu_0{stroke-dasharray:7994 7996;stroke-dashoffset:7995;animation:xTjzJhNu_draw_0 7400ms ease-in-out 0ms infinite,xTjzJhNu_fade 7400ms linear 0ms infinite;}.xTjzJhNu_1{stroke-dasharray:629 631;stroke-dashoffset:630;animation:xTjzJhNu_draw_1 7400ms ease-in-out 0ms infinite,xTjzJhNu_fade 7400ms linear 0ms infinite;}.xTjzJhNu_2{stroke-dasharray:629 631;stroke-dashoffset:630;animation:xTjzJhNu_draw_2 7400ms ease-in-out 0ms infinite,xTjzJhNu_fade 7400ms linear 0ms infinite;}.xTjzJhNu_3{stroke-dasharray:629 631;stroke-dashoffset:630;animation:xTjzJhNu_draw_3 7400ms ease-in-out 0ms infinite,xTjzJhNu_fade 7400ms linear 0ms infinite;}.xTjzJhNu_4{stroke-dasharray:629 631;stroke-dashoffset:630;animation:xTjzJhNu_draw_4 7400ms ease-in-out 0ms infinite,xTjzJhNu_fade 7400ms linear 0ms infinite;}.xTjzJhNu_5{stroke-dasharray:629 631;stroke-dashoffset:630;animation:xTjzJhNu_draw_5 7400ms ease-in-out 0ms infinite,xTjzJhNu_fade 7400ms linear 0ms infinite;}.xTjzJhNu_6{stroke-dasharray:2608 2610;stroke-dashoffset:2609;animation:xTjzJhNu_draw_6 7400ms ease-in-out 0ms infinite,xTjzJhNu_fade 7400ms linear 0ms infinite;}.xTjzJhNu_7{stroke-dasharray:381 383;stroke-dashoffset:382;animation:xTjzJhNu_draw_7 7400ms ease-in-out 0ms infinite,xTjzJhNu_fade 7400ms linear 0ms infinite;}.xTjzJhNu_8{stroke-dasharray:381 383;stroke-dashoffset:382;animation:xTjzJhNu_draw_8 7400ms ease-in-out 0ms infinite,xTjzJhNu_fade 7400ms linear 0ms infinite;}.xTjzJhNu_9{stroke-dasharray:381 383;stroke-dashoffset:382;animation:xTjzJhNu_draw_9 7400ms ease-in-out 0ms infinite,xTjzJhNu_fade 7400ms linear 0ms infinite;}.xTjzJhNu_10{stroke-dasharray:381 383;stroke-dashoffset:382;animation:xTjzJhNu_draw_10 7400ms ease-in-out 0ms infinite,xTjzJhNu_fade 7400ms linear 0ms infinite;}.xTjzJhNu_11{stroke-dasharray:381 383;stroke-dashoffset:382;animation:xTjzJhNu_draw_11 7400ms ease-in-out 0ms infinite,xTjzJhNu_fade 7400ms linear 0ms infinite;}.xTjzJhNu_12{stroke-dasharray:1609 1611;stroke-dashoffset:1610;animation:xTjzJhNu_draw_12 7400ms ease-in-out 0ms infinite,xTjzJhNu_fade 7400ms linear 0ms infinite;}@keyframes xTjzJhNu_draw{100%{stroke-dashoffset:0;}}@keyframes xTjzJhNu_fade{0%{stroke-opacity:1;}91.89189189189189%{stroke-opacity:1;}100%{stroke-opacity:0;}}@keyframes xTjzJhNu_draw_0{10.81081081081081%{stroke-dashoffset: 7995}37.83783783783784%{ stroke-dashoffset: 0;}100%{ stroke-dashoffset: 0;}}@keyframes xTjzJhNu_draw_1{11.936936936936938%{stroke-dashoffset: 630}38.96396396396396%{ stroke-dashoffset: 0;}100%{ stroke-dashoffset: 0;}}@keyframes xTjzJhNu_draw_2{13.063063063063062%{stroke-dashoffset: 630}40.09009009009009%{ stroke-dashoffset: 0;}100%{ stroke-dashoffset: 0;}}@keyframes xTjzJhNu_draw_3{14.18918918918919%{stroke-dashoffset: 630}41.21621621621622%{ stroke-dashoffset: 0;}100%{ stroke-dashoffset: 0;}}@keyframes xTjzJhNu_draw_4{15.315315315315313%{stroke-dashoffset: 630}42.342342342342334%{ stroke-dashoffset: 0;}100%{ stroke-dashoffset: 0;}}@keyframes xTjzJhNu_draw_5{16.44144144144144%{stroke-dashoffset: 630}43.468468468468465%{ stroke-dashoffset: 0;}100%{ stroke-dashoffset: 0;}}@keyframes xTjzJhNu_draw_6{17.56756756756757%{stroke-dashoffset: 2609}44.5945945945946%{ stroke-dashoffset: 0;}100%{ stroke-dashoffset: 0;}}@keyframes xTjzJhNu_draw_7{18.693693693693692%{stroke-dashoffset: 382}45.72072072072071%{ stroke-dashoffset: 0;}100%{ stroke-dashoffset: 0;}}@keyframes xTjzJhNu_draw_8{19.819819819819816%{stroke-dashoffset: 382}46.846846846846844%{ stroke-dashoffset: 0;}100%{ stroke-dashoffset: 0;}}@keyframes xTjzJhNu_draw_9{20.945945945945947%{stroke-dashoffset: 382}47.97297297297297%{ stroke-dashoffset: 0;}100%{ stroke-dashoffset: 0;}}@keyframes xTjzJhNu_draw_10{22.07207207207207%{stroke-dashoffset: 382}49.0990990990991%{ stroke-dashoffset: 0;}100%{ stroke-dashoffset: 0;}}@keyframes xTjzJhNu_draw_11{23.1981981981982%{stroke-dashoffset: 382}50.22522522522522%{ stroke-dashoffset: 0;}100%{ stroke-dashoffset: 0;}}@keyframes xTjzJhNu_draw_12{24.324324324324326%{stroke-dashoffset: 1610}51.35135135135135%{ stroke-dashoffset: 0;}100%{ stroke-dashoffset: 0;}}
</style>
</svg>
