<!--?xml version="1.0" encoding="UTF-8"?-->
<svg width="400px" height="400px" viewBox="0 0 400 400" version="1.1" xmlns="http://www.w3.org/2000/svg" xmlns:xlink="http://www.w3.org/1999/xlink" style="">
    <!-- Generator: Sketch 52.6 (67491) - http://www.bohemiancoding.com/sketch -->
    <title>LEFT</title>
    <desc>Created with Sketch.</desc>
    <g id="Page-1" stroke="none" stroke-width="1" fill="none" fill-rule="evenodd">
        <g id="LEFT">
            <path id="Rectangle-2" fill="#152239" width="400" height="400" d="M0 0 L400 0 L400 400 L0 400 Z" class="BXUjsZFD_0"></path>
            <path id="Oval" stroke="#FFFFFF" stroke-width="10" fill="#6D97B9" d="M100,200A100,100 0,1,1 300,200A100,100 0,1,1 100,200" class="BXUjsZFD_1"></path>
            <path id="Oval" stroke="#213E72" stroke-width="10" fill="#6E98BA" d="M117,200A83,83 0,1,1 283,200A83,83 0,1,1 117,200" class="BXUjsZFD_2"></path>
            <path id="Oval" stroke="#213E72" stroke-width="10" fill="#FFFFFF" d="M140,200A60,60 0,1,1 260,200A60,60 0,1,1 140,200" class="BXUjsZFD_3"></path>
            <path d="M96,200 C99.0248756,200 114.149254,200 141.373134,200 C168.597015,200 197.333333,200 227.58209,200 L268.41791,200 L313.791045,200 L354.626866,200 L400,200" id="Path" stroke="#FFFFFF" stroke-width="10" fill="#FFFFFF" class="BXUjsZFD_4"></path>
            <text id="B" fill="#152239" font-family="Phosphate-Inline, Phosphate" font-size="75" font-weight="normal" letter-spacing="1">
                <tspan x="179.9625" y="224">B</tspan>
            </text>
        </g>
    </g>
<style data-made-with="vivus-instant">.BXUjsZFD_0{stroke-dasharray:1600 1602;stroke-dashoffset:1601;animation:BXUjsZFD_draw_0 5600ms ease 0ms infinite,BXUjsZFD_fade 5600ms linear 0ms infinite;}.BXUjsZFD_1{stroke-dasharray:629 631;stroke-dashoffset:630;animation:BXUjsZFD_draw_1 5600ms ease 0ms infinite,BXUjsZFD_fade 5600ms linear 0ms infinite;}.BXUjsZFD_2{stroke-dasharray:522 524;stroke-dashoffset:523;animation:BXUjsZFD_draw_2 5600ms ease 0ms infinite,BXUjsZFD_fade 5600ms linear 0ms infinite;}.BXUjsZFD_3{stroke-dasharray:378 380;stroke-dashoffset:379;animation:BXUjsZFD_draw_3 5600ms ease 0ms infinite,BXUjsZFD_fade 5600ms linear 0ms infinite;}.BXUjsZFD_4{stroke-dasharray:304 306;stroke-dashoffset:305;animation:BXUjsZFD_draw_4 5600ms ease 0ms infinite,BXUjsZFD_fade 5600ms linear 0ms infinite;}@keyframes BXUjsZFD_draw{100%{stroke-dashoffset:0;}}@keyframes BXUjsZFD_fade{0%{stroke-opacity:1;}92.85714285714286%{stroke-opacity:1;}100%{stroke-opacity:0;}}@keyframes BXUjsZFD_draw_0{7.142857142857142%{stroke-dashoffset: 1601}42.857142857142854%{ stroke-dashoffset: 0;}100%{ stroke-dashoffset: 0;}}@keyframes BXUjsZFD_draw_1{11.607142857142858%{stroke-dashoffset: 630}47.32142857142857%{ stroke-dashoffset: 0;}100%{ stroke-dashoffset: 0;}}@keyframes BXUjsZFD_draw_2{16.071428571428573%{stroke-dashoffset: 523}51.78571428571429%{ stroke-dashoffset: 0;}100%{ stroke-dashoffset: 0;}}@keyframes BXUjsZFD_draw_3{20.535714285714285%{stroke-dashoffset: 379}56.25%{ stroke-dashoffset: 0;}100%{ stroke-dashoffset: 0;}}@keyframes BXUjsZFD_draw_4{25%{stroke-dashoffset: 305}60.71428571428571%{ stroke-dashoffset: 0;}100%{ stroke-dashoffset: 0;}}
</style></svg>
