<!--?xml version="1.0" encoding="UTF-8"?-->
<svg width="400px" height="400px" viewBox="0 0 400 400" version="1.1" xmlns="http://www.w3.org/2000/svg" xmlns:xlink="http://www.w3.org/1999/xlink" style="">
    <!-- Generator: Sketch 52.6 (67491) - http://www.bohemiancoding.com/sketch -->
    <title>PROFILE</title>
    <desc>Created with Sketch.</desc>
    <g id="Page-1" stroke="none" stroke-width="1" fill="none" fill-rule="evenodd">
        <g id="PROFILE">
            <path id="Rectangle-2" fill="#152239" width="400" height="400" d="M0 0 L400 0 L400 400 L0 400 Z" class="FXLRpohC_0"></path>
            <path id="Oval" stroke="#FFFFFF" stroke-width="10" fill="#6D97B9" d="M100,200A100,100 0,1,1 300,200A100,100 0,1,1 100,200" class="FXLRpohC_1"></path>
            <path id="Oval" stroke="#213E72" stroke-width="10" fill="#6E98BA" d="M117,200A83,83 0,1,1 283,200A83,83 0,1,1 117,200" class="FXLRpohC_2"></path>
            <path id="Oval" stroke="#213E72" stroke-width="10" fill="#FFFFFF" d="M140,200A60,60 0,1,1 260,200A60,60 0,1,1 140,200" class="FXLRpohC_3"></path>
            <path d="M0,200 C3.9800995,200 23.880597,200 59.7014925,200 C95.5223881,200 133.333333,200 173.134328,200 L226.865672,200 L286.567164,200 L340.298507,200 L400,200" id="Path" stroke="#FFFFFF" stroke-width="10" fill="#FFFFFF" class="FXLRpohC_4"></path>
            <text id="ABOUT-ME" font-family="Phosphate-Inline, Phosphate" font-size="45" font-weight="normal" letter-spacing="0.6" fill="#FFFFFF">
                <tspan x="98.335" y="67">ABOUT ME</tspan>
            </text>
        </g>
    </g>
<style data-made-with="vivus-instant">.FXLRpohC_0{stroke-dasharray:1600 1602;stroke-dashoffset:1601;animation:FXLRpohC_draw_0 5600ms ease 0ms infinite,FXLRpohC_fade 5600ms linear 0ms infinite;}.FXLRpohC_1{stroke-dasharray:629 631;stroke-dashoffset:630;animation:FXLRpohC_draw_1 5600ms ease 0ms infinite,FXLRpohC_fade 5600ms linear 0ms infinite;}.FXLRpohC_2{stroke-dasharray:522 524;stroke-dashoffset:523;animation:FXLRpohC_draw_2 5600ms ease 0ms infinite,FXLRpohC_fade 5600ms linear 0ms infinite;}.FXLRpohC_3{stroke-dasharray:378 380;stroke-dashoffset:379;animation:FXLRpohC_draw_3 5600ms ease 0ms infinite,FXLRpohC_fade 5600ms linear 0ms infinite;}.FXLRpohC_4{stroke-dasharray:400 402;stroke-dashoffset:401;animation:FXLRpohC_draw_4 5600ms ease 0ms infinite,FXLRpohC_fade 5600ms linear 0ms infinite;}@keyframes FXLRpohC_draw{100%{stroke-dashoffset:0;}}@keyframes FXLRpohC_fade{0%{stroke-opacity:1;}89.28571428571429%{stroke-opacity:1;}100%{stroke-opacity:0;}}@keyframes FXLRpohC_draw_0{8.928571428571429%{stroke-dashoffset: 1601}44.642857142857146%{ stroke-dashoffset: 0;}100%{ stroke-dashoffset: 0;}}@keyframes FXLRpohC_draw_1{11.160714285714286%{stroke-dashoffset: 630}46.875%{ stroke-dashoffset: 0;}100%{ stroke-dashoffset: 0;}}@keyframes FXLRpohC_draw_2{13.392857142857142%{stroke-dashoffset: 523}49.107142857142854%{ stroke-dashoffset: 0;}100%{ stroke-dashoffset: 0;}}@keyframes FXLRpohC_draw_3{15.625%{stroke-dashoffset: 379}51.33928571428571%{ stroke-dashoffset: 0;}100%{ stroke-dashoffset: 0;}}@keyframes FXLRpohC_draw_4{17.857142857142858%{stroke-dashoffset: 401}53.57142857142857%{ stroke-dashoffset: 0;}100%{ stroke-dashoffset: 0;}}
</style>
</svg>
